<?xml version="1.0" standalone="no"?><!DOCTYPE svg PUBLIC "-//W3C//DTD SVG 1.1//EN" "http://www.w3.org/Graphics/SVG/1.1/DTD/svg11.dtd"><svg t="1578573268950" class="icon" viewBox="0 0 1024 1024" version="1.1" xmlns="http://www.w3.org/2000/svg" p-id="2155" xmlns:xlink="http://www.w3.org/1999/xlink" width="200" height="200"><defs><style type="text/css"></style></defs><path d="M545.4 457.4c-7.6 2-15.4 3.8-23.4 5-43.4 7-93.4 3.8-126.6-4.8l-174.6-70.2c-0.6-0.6-1.2-1.2-2-1.6-21.2-13.8-16.6-31.4 9.8-40.6l198.4-34.2c-0.4 3.4-0.8 6.8-0.8 10.2-0.4 3.2-0.4 6.4-0.4 9.6 0 50.4 40.8 83.8 91.4 74.6 50.4-9.2 91.4-57.4 91.4-107.6 0-6.6-0.8-13-2.2-19.4l4.2-0.8c28-1.4 49.6 18.6 49.6 47.4V428l-112.6 28.8c-0.8 0.2-1.4 0.4-2.2 0.6zM832.6 322.2l49 16.4c0.4 0.2 1 0.4 1.4 0.8 15.8 9.2 17.4 22.8 3.8 30.4-1.4 0.8-2.8 1.4-4.2 2l-9.2 2.4c-0.8 0.2-1.4 0.2-2.2 0.2-0.8 0.2-1.4 0.6-2.2 0.8l-198.6 50.4V326c0-31.2 25.2-48.8 56.4-39.2l105.8 35.4zM949.2 462.8c-2.6-0.2-4.8-2.4-4.8-5v-0.2l-0.2-48.8c-1-14.6-7.6-25.8-17.4-36l0.2 0.2c-1-1-1-2.6 0-3.6 0.8-0.8 1.8-1 2.8-0.6 20.4 9.8 43.4 21.6 52.4 39 16.4 30.6-4.2 52.6-33 55zM392 466.2c29 12 33.8 41.4 10.8 65.8-0.8 0.8-1.4 1.6-2 2.6L310 636.2c-19 14.6-43.8 19-66.6 11.8l-186.8-111.6c-0.2 0-0.2-0.2-0.4-0.2-6.8-4.6-12.4-11-16-18.6-7.8-17-3.2-36 10.2-50.6l0.2-0.2 49.4-56c0.8-0.6 1.6-1.4 2.4-2.2 20.8-23 58.6-33.6 87-25.4l201.2 82.2c0.4 0.4 1 0.6 1.4 0.8z" p-id="2156"></path><path d="M448.4 971c0 31.4-25.4 37.2-56.6 13.2-1.2-1-2.6-1.8-4.2-2.4l-176.6-136.8c-0.6-0.4-1.2-1-1.8-1.4-31.2-24.2-56.6-69.2-56.6-100.4v-138.6l85.4 52.6c26.8 12 61.4 5.4 80.4-16.4 0.8-0.8 1.6-1.6 2.4-2.2l89.8-102c0.4-1 1.2-1.8 1.8-2.6 14.4-15.6 18-33.6 12.4-48.6 0.4 0.4 0.6 0.6 0.8 0.6 3.4 2 6.6 4.6 9.4 7.6 8.2 13.2 13.2 27.8 13.2 41.6 0 1.6 0 3.4-0.2 4.8 0.2 1.8 0.2 3.4 0.2 5.2l0.2 425.8zM878 876.8c-0.6 0.2-1 0.4-1.6 0.6l-361.8 131.2c-31 10.8-56-5.4-56-36.4V545.2c0-30.2 26-60.4 55.8-69.6l372-95.2c27.2-2.8 48 15.2 48.2 43.4v375.8c0 31.4-25.4 65.8-56.6 77.2z m-40-311c0.4-0.6 0.8-1 1.4-1.6 15-14 24.8-33.8 24.8-53.2 0-31.4-25.4-50.2-56.6-42.2-16.4 4.6-31 14.4-41.2 28.2l-0.4 0.4-98.2 107v-39-2.4-1.4c0-6.6-1.2-13.2-3.8-19.2-5.6-15-18.4-26-42.6-24.8-2.6 0.2-5 0.4-7.6 0.8-1 0.4-1.8 0.8-2.8 1-16 4.2-30.4 13.4-41 26.2-4.4 6.2-7.8 12.8-10.4 20-3.4 8-5.2 16.4-5.2 25.2v298.2c1.2 29.8 26 45.2 56.6 34.2l3-1.2c1-0.4 2-0.8 3-1.4 28.4-13.2 50.6-45.4 50.6-74.6v-64l95.4 64.4c10.4 9.4 26.4 12 44.4 5.6 11.2-4.2 21.4-10.8 30-19.4 0.8-0.8 1.4-1.6 2.2-2.2 0.8-0.8 1.4-1.6 2.2-2.2l0.2-0.2c0.6-0.8 1.4-1.6 2-2.4l0.2-0.2 1.8-2.4 0.2-0.2c0.6-0.8 1.2-1.6 1.8-2.2l0.2-0.4c0.6-0.8 1-1.4 1.6-2.2 0.2-0.2 0.2-0.2 0.2-0.4 0.4-0.8 1-1.4 1.4-2.2 0.2-0.2 0.2-0.4 0.4-0.6 0.4-0.8 0.8-1.4 1.4-2.2 0.2-0.2 0.2-0.4 0.4-0.6 0.4-0.6 0.8-1.4 1.2-2.2 0.2-0.2 0.2-0.4 0.4-0.8 0.4-0.6 0.8-1.4 1-2 0.2-0.2 0.2-0.6 0.4-0.8 0.4-0.6 0.6-1.4 1-2 0.2-0.4 0.2-0.6 0.4-1 0.2-0.6 0.6-1.2 0.8-2 0.2-0.4 0.2-0.6 0.4-1l0.6-1.8c0.2-0.4 0.2-0.8 0.4-1.2l0.6-1.8c0.2-0.4 0.2-0.8 0.4-1.2 0.2-0.6 0.4-1.2 0.4-1.6 0.2-0.4 0.2-1 0.4-1.4 0.2-0.6 0.2-1 0.4-1.6 0.2-0.4 0.2-1 0.4-1.4s0.2-1 0.4-1.4c0-0.4 0.2-1 0.2-1.6 0-0.4 0.2-1 0.2-1.4 0-0.6 0.2-1.2 0.2-1.6 0-0.4 0.2-0.8 0.2-1.2 0-0.6 0.2-1.2 0.2-2v-1-3c0-1.2 0.2-2.2 0.4-3.4-0.2-0.6-0.4-1-0.6-1.6v-0.2c-1.2-13.4-7.4-23.6-16.8-29.4-1-0.8-1.8-1.2-1.8-1.2l-113.6-63.4 106.2-110zM373.2 159c-11.8 4.8-25 4.4-36.6-1h-0.4c-9-5.4-17.6-11.4-25.6-18 0 0-20.4 98-28.8 138-0.2 0.4-0.4 0.8-0.4 1.2v0.4c0 0.2-0.2 0.4-0.2 0.8-0.2 0.6-0.2 1.2-0.4 1.8 0 0.2-0.2 0.6-0.2 0.8-0.2 0.6-0.4 1.4-0.6 2 0 0.2 0 0.4-0.2 0.4-0.2 0.8-0.6 1.6-1 2.4 0 0.2-0.2 0.4-0.2 0.6-0.2 0.6-0.6 1.2-0.8 1.8-0.2 0.2-0.2 0.6-0.4 0.8-0.2 0.6-0.6 1.2-1 1.8-0.2 0.2-0.2 0.4-0.4 0.6-0.4 0.8-0.8 1.6-1.4 2.4-0.2 0.2-0.2 0.4-0.4 0.6l-1.2 1.8c-0.2 0.2-0.4 0.4-0.6 0.8-0.4 0.6-0.8 1.2-1.2 1.6-0.2 0.2-0.4 0.4-0.4 0.6-0.6 0.8-1.2 1.4-1.8 2.2 0 0.2-0.2 0.2-0.2 0.4-0.6 0.6-1.2 1.2-1.6 1.8l-0.6 0.6c-0.4 0.6-1 1-1.6 1.6l-0.6 0.6c-0.8 0.6-1.4 1.4-2.2 2-1.2 1-2.6 2-4 3-0.2 0.2-0.6 0.4-0.8 0.6-1.4 1-2.6 1.8-4 2.6-0.2 0.2-0.6 0.2-0.8 0.4-1.4 0.8-2.8 1.6-4.2 2.2l-0.4 0.2c-1.4 0.8-3 1.4-4.4 2l-0.8 0.4c-1.6 0.6-3 1.2-4.6 1.6-0.2 0-0.4 0.2-0.6 0.2-1.6 0.4-3 1-4.6 1.4-0.2 0-0.2 0-0.4 0.2-1.6 0.4-3.2 0.8-5 1l-0.8 0.2c-1.6 0.2-3.4 0.6-5.2 0.8h-0.2c-1.8 0.2-3.6 0.4-5.2 0.4H210.2c-3.6 0-7.2-0.4-10.8-1h-0.2c-1.8-0.2-3.6-0.6-5.4-1h-0.2c-3.6-0.8-7.2-1.8-10.6-3.2h-0.2c-8-3-15.4-7.2-21.8-12.6-28.4-23.6-29.2-61.4-1.6-84.6s72.8-23 101.2 0.6c3 2.6 5.8 5.4 8.4 8.4l13.6-103.8c0-0.2 0-0.4 0.2-0.6 0.4-25.2 21.4-45.4 46.6-45 13.2 0.2 25.6 6.2 34.2 16.2 1.6 1.8 5.8 7.4 6.4 8.2 10.4 12.4 26.8 18.4 42.8 15.6-15.4 17.4-28.4 28.2-39.6 34.2zM598.2 305.2v1.2c0 0.8-0.2 1.8-0.2 2.6 0 0.4 0 1-0.2 1.4 0 0.8-0.2 1.6-0.4 2.4 0 0.4-0.2 1-0.2 1.4-0.2 1-0.4 1.8-0.4 2.8 0 0.4-0.2 0.6-0.2 1-0.2 1.2-0.6 2.4-0.8 3.6 0 0.4-0.2 0.6-0.2 1-0.2 0.8-0.4 1.8-0.8 2.6-0.2 0.4-0.2 1-0.4 1.4-0.2 0.8-0.4 1.6-0.8 2.2-0.2 0.6-0.4 1-0.6 1.6-0.2 0.8-0.6 1.4-0.8 2.2-0.2 0.4-0.4 1-0.6 1.4-0.4 0.8-0.6 1.6-1 2.6-0.2 0.6-0.4 1-0.6 1.6-0.4 1-0.8 1.8-1.2 2.8-0.2 0.6-0.6 1-0.8 1.6-0.4 0.6-0.6 1.2-1 1.8-0.4 0.6-0.6 1.2-1 1.6-0.4 0.6-0.6 1.2-1 1.6-0.4 0.6-0.6 1.2-1 1.8-0.4 0.6-0.6 1-1 1.6l-1.2 1.8c-0.2 0.4-0.4 0.6-0.8 1-0.8 1.2-1.8 2.4-2.6 3.6-0.2 0.4-0.6 0.8-0.8 1.2-0.4 0.6-1 1.2-1.4 1.8-0.2 0.4-0.6 0.8-0.8 1-0.6 0.6-1 1.2-1.6 1.8-0.2 0.4-0.6 0.6-0.8 1-0.6 0.6-1.2 1.2-1.8 2l-0.4 0.4c-2.2 2.2-4.4 4.4-6.8 6.4l-0.6 0.6c-0.8 0.6-1.4 1.2-2.2 1.8l-0.6 0.6c-0.8 0.6-1.6 1.2-2.2 1.8-0.2 0.2-0.4 0.2-0.4 0.4-3.4 2.6-7.2 5-11 7.2l-0.6 0.4c-0.8 0.4-1.8 1-2.6 1.4l-0.6 0.2c-1 0.4-1.8 1-2.8 1.4-7.4 3.6-15.2 6-23.2 7.6-44.8 8-81.2-21.4-81.2-66s36.4-87.2 81.2-95.2c4.8-0.8 9.8-1.4 14.6-1.4l-87.6-96c-0.6-0.8-1.4-1.8-2-2.8-21.2-23-20-58.8 3-80.2 10.4-9.8 24.2-15.2 38.6-15.2h11.4c19.8 0 38.2-10.4 48.4-27.2 4 27.2 3.6 47.8 0.4 62.6-5 15-15.8 27.2-30.2 33.8-0.2 0-0.2 0.2-0.4 0.4-12.2 4.2-24.8 7.6-37.4 10 0 0 76.4 97.4 107.4 137.2 0.2 0.4 0.4 1 0.8 1.4 0 0.2 0.2 0.2 0.2 0.4 0.2 0.2 0.4 0.4 0.6 0.8 0.4 0.6 1 1.2 1.4 2 0.2 0.2 0.4 0.6 0.6 0.8 0.4 0.8 1 1.4 1.4 2.2 0.2 0.2 0.2 0.4 0.4 0.6 0.6 1 1 1.8 1.6 2.8 0.2 0.2 0.2 0.6 0.4 0.8 0.4 0.8 0.8 1.4 1.2 2.2 0.2 0.4 0.4 0.6 0.4 1 0.4 0.8 0.6 1.6 1 2.4 0.2 0.2 0.2 0.6 0.4 0.8 0.4 1 0.8 2 1.2 3.2 0 0.2 0.2 0.4 0.2 0.8 0.2 0.8 0.6 1.8 0.8 2.6 0 0.4 0.2 0.6 0.2 1l0.6 2.4c0 0.4 0.2 0.6 0.2 1 0.2 1.2 0.4 2.2 0.6 3.4v0.6c0.2 1 0.2 2 0.4 3 0 0.4 0 0.8 0.2 1.2 0 0.8 0.2 1.8 0.2 2.6v5c0 1.4 0 2.4-0.2 3.8z" p-id="2157"></path></svg>