<?xml version="1.0" standalone="no"?><!DOCTYPE svg PUBLIC "-//W3C//DTD SVG 1.1//EN" "http://www.w3.org/Graphics/SVG/1.1/DTD/svg11.dtd"><svg t="1578552846458" class="icon" viewBox="0 0 1024 1024" version="1.1" xmlns="http://www.w3.org/2000/svg" p-id="6834" xmlns:xlink="http://www.w3.org/1999/xlink" width="200" height="200"><defs><style type="text/css"></style></defs><path d="M505.88 98.28c10.66-3.46 18.92-11.42 25.58-20.16 1.76 15.16 3.1 30.5 1.36 45.72-1.6 17.34-14.82 32.26-30.88 38.1-9.44 3.28-19.24 5.42-29.02 7.44 28.08 35.26 55.66 70.9 83.42 106.4 9.06 11.32 18.88 23.16 20.94 38.04 7.34 43.66-28.18 87.46-71.14 93.68-17.9 2.96-37.46-2.1-50.5-15-12.38-11.86-17.96-29.6-16.7-46.48 2.84-41.6 40.24-77.84 82.12-78.54-25.3-27.58-50.56-55.22-75.62-83.02-10-10.78-15.9-25.66-13.9-40.44 2.1-19.12 16.56-36.14 35.16-41.12 12.76-3.92 26.66 0.52 39.18-4.62z" fill="#46B4EF" p-id="6835"></path><path d="M335.42 141.22c10.88-3.28 23.1-1.4 32.58 4.86 8.94 5.52 13.14 16.02 22.02 21.68 8.24 5.9 18.66 7.58 28.6 6.52-8.92 9.88-18.42 19.44-29.7 26.62-8.12 5.24-18.42 6.04-27.68 4.08-11.76-2.76-20.78-11.28-30.36-18.04-8 39.72-16.42 79.38-24.82 119.02-3.56 18.32-18.8 32.48-36.08 38.2-27.48 9.56-62.04 1.1-78.48-23.86-11.26-16.38-9.54-40 4.04-54.52 25.46-28.56 75.06-26.42 100.02 1.78 3.64-31.22 8.28-62.28 11.98-93.48 1.56-15.26 13.2-28.7 27.88-32.86z" fill="#69C3F5" p-id="6836"></path><path d="M585.06 305.16c11.12-1.54 22.92 1.06 31.68 8.24 9.1 7.3 14.4 18.88 14.5 30.5 0.08 30.1-0.06 60.2 0.06 90.28-32.54 8.34-65.08 16.7-97.62 25-27.24 7.24-55.72 8.72-83.74 7.14-16.32-1.38-32.88-2.78-48.54-7.84-48.44-19.56-96.94-38.96-145.34-58.58-7.4-3.88-15.88-10.6-15.06-19.88 2.34-9.54 12.3-14.68 21.04-17.1 56.34-9.98 112.8-19.34 169.14-29.42-1.64 16.02-1.82 32.96 5.74 47.64 9.78 20.78 32.06 34.44 54.92 34.58 55.7 1.94 105.42-55.68 93.22-110.56zM859.22 383.62c4.28-1.38 7.96 1.86 11.64 3.46 13.46 7.12 27.98 14.6 36.3 27.92 5.52 9.18 8.28 21.16 3.22 31.16-5.66 11.12-18.28 17-30.32 17.7-3.26 0.6-5.1-3.02-4.62-5.8-0.44-15.06 0.64-30.22-0.64-45.24-1.4-11.5-9.72-19.88-15.58-29.2z" fill="#FFA400" p-id="6837"></path><path d="M653.28 317.32c10.14-7.68 24.08-8 35.78-4.1 43.06 14.3 86.08 28.72 129.14 43 7.14 2.36 14.56 7.8 15.68 15.72 0.62 7.78-7.2 12.94-13.94 14.46-60.04 15.18-120.04 30.54-180.1 45.6 0.08-28-0.06-56.02 0.06-84.04-0.22-11.46 3.78-23.72 13.38-30.64z" fill="#FF912D" p-id="6838"></path><path d="M192.92 395.4c12.42-2.62 25.76-2.84 37.68 2.04 56.74 23.24 113.6 46.26 170.32 69.56 10.62 4.22 20.14 13.22 21.7 24.98 1.78 12.08-4.64 23.44-12.5 32.1-24.02 27.28-48.54 54.12-72.68 81.3-14.76 19.28-43.38 25.66-65.52 16.88-49.78-29.54-99.4-59.36-149.14-88.98-6.18-3.68-12.7-7.14-17.54-12.6-7.84-8.64-11.58-21.18-8.58-32.6 1.96-9.1 7.74-16.68 13.86-23.42 13.56-15.12 26.74-30.6 40.46-45.58 11-12.14 25.98-20.3 41.94-23.68z" fill="#FFEB91" p-id="6839"></path><path d="M820.46 394.6c15.64-4.92 34.46 2 42 16.84 5.66 9.9 4.64 21.64 4.64 32.58 0.04 101.36-0.04 202.7 0.06 304.06 1.56 31.82-21.38 61.88-50.88 72.32-103.22 37.42-206.46 74.84-309.7 112.24-10.28 3.68-22.36 4.54-32.22-0.84-8.82-4.68-14.56-14.12-15.64-23.94-0.72-7.24-0.36-14.52-0.42-21.76-0.02-116.02 0.04-232.06-0.02-348.08-1.04-28.9 21.64-54.8 48.42-63.04 104.54-26.92 209.2-53.46 313.76-80.38m-75.74 80.04c-12.96 6.56-21.48 18.66-31.24 28.94-25.36 27.54-50.6 55.2-75.98 82.72-0.06-12.76 0.16-25.52-0.06-38.28 0-9.02-2.96-18.04-8.46-25.2-7.7-9.7-21.14-12.74-32.94-11.4-17.2 2.86-33.72 12.24-43.76 26.66-6.58 10.8-11.58 23.16-11.42 35.98 0.08 85.28-0.02 170.56 0.04 255.84-0.16 12.54 7.2 25.38 19.26 29.8 13.64 5.16 28.9 0.72 40.88-6.62 21.2-13.44 37.22-37.38 36.48-63.08 0-17.48 0-34.98-0.02-52.46 27.96 19.1 56.22 37.74 84.06 57 6.84 5.18 15.74 7.36 24.24 6.24 17.68-2.22 33.18-13.14 44.18-26.76 10.32-12.88 17.26-29.2 16.22-45.92-0.76-10.62-6.38-21.08-15.86-26.34-32.58-18.46-65.44-36.44-98-54.92 31.6-32.56 63.12-65.18 94.66-97.8 12.6-12.84 20.96-30.88 18.94-49.12-1.2-12.38-9.06-24.12-20.66-28.98-13.1-5.46-28.38-3-40.56 3.7z" fill="#FFE17D" p-id="6840"></path><path d="M744.72 474.64c12.18-6.7 27.46-9.16 40.56-3.7 11.6 4.86 19.46 16.6 20.66 28.98 2.02 18.24-6.34 36.28-18.94 49.12-31.54 32.62-63.06 65.24-94.66 97.8 32.56 18.48 65.42 36.46 98 54.92 9.48 5.26 15.1 15.72 15.86 26.34 1.04 16.72-5.9 33.04-16.22 45.92-11 13.62-26.5 24.54-44.18 26.76-8.5 1.12-17.4-1.06-24.24-6.24-27.84-19.26-56.1-37.9-84.06-57 0.02 17.48 0.02 34.98 0.02 52.46 0.74 25.7-15.28 49.64-36.48 63.08-11.98 7.34-27.24 11.78-40.88 6.62-12.06-4.42-19.42-17.26-19.26-29.8-0.06-85.28 0.04-170.56-0.04-255.84-0.16-12.82 4.84-25.18 11.42-35.98 10.04-14.42 26.56-23.8 43.76-26.66 11.8-1.34 25.24 1.7 32.94 11.4 5.5 7.16 8.46 16.18 8.46 25.2 0.22 12.76 0 25.52 0.06 38.28 25.38-27.52 50.62-55.18 75.98-82.72 9.76-10.28 18.28-22.38 31.24-28.94z" fill="#FF7830" p-id="6841"></path><path d="M429.4 483.16c13.7 8.36 18.82 25.62 20.06 40.74 0.18 125.4 0 250.8 0.1 376.2 0.3 8.22-2.08 17.64-9.7 22.04-8.12 4.66-17.96 1.6-25.84-2.1-11.06-5.96-21.08-13.66-30.94-21.4-45.38-35.16-90.78-70.28-136.14-105.46-20.04-15.2-35.52-36.1-45.02-59.32-3.82-9.48-6.48-19.56-6.58-29.82-0.02-39.54 0.1-79.1-0.04-118.64 22.02 13.84 44.32 27.2 66.38 40.96 23.74 16.42 59.1 10.7 77.68-11.02 26.72-29.9 53.24-60 79.52-90.28 10.28-11.04 16.02-27.22 10.52-41.9z" fill="#FFC841" p-id="6842"></path></svg>