<?xml version="1.0" standalone="no"?><!DOCTYPE svg PUBLIC "-//W3C//DTD SVG 1.1//EN" "http://www.w3.org/Graphics/SVG/1.1/DTD/svg11.dtd"><svg t="1578552672118" class="icon" viewBox="0 0 1024 1024" version="1.1" xmlns="http://www.w3.org/2000/svg" p-id="5191" data-spm-anchor-id="a313x.7781069.0.i3" xmlns:xlink="http://www.w3.org/1999/xlink" width="200" height="200"><defs><style type="text/css"></style></defs><path d="M510.08 0c281.557333 0 510.122667 228.565333 510.122667 510.08 0 281.557333-228.565333 510.122667-510.122667 510.122667C228.565333 1020.16 0 791.637333 0 510.08 0 228.565333 228.565333 0 510.08 0z m6.656 872.789333c34.773333 0 62.933333-28.16 62.933333-64.597333 0-16.554667-6.656-33.109333-18.218666-48.042667-11.605333-11.562667-29.866667-18.218667-46.378667-18.218666a66.986667 66.986667 0 0 0-62.933333 66.261333c0 36.437333 29.781333 64.597333 64.597333 64.597333z m99.328-329.557333c29.866667-19.882667 119.253333-57.984 119.253333-162.304 0-104.362667-89.429333-177.237333-165.589333-192.128-76.202667-16.554667-157.354667-6.613333-215.296 56.32-51.370667 54.613333-62.933333 99.370667-62.933333 197.077333h115.925333V418.986667c0-52.992 4.949333-107.648 81.152-122.538667a116.181333 116.181333 0 0 1 102.656 26.496c26.496 26.496 26.496 82.773333-14.933333 110.933333l-66.218667 43.093334c-38.058667 23.168-51.328 49.664-51.328 89.429333v132.48h115.925333v-89.429333c0-23.168 11.605333-46.378667 41.386667-66.218667z" p-id="5192" fill="#cde4fe"></path></svg>